<?xml version="1.0" encoding="utf-8"?>
<!-- Generator: Adobe Illustrator 26.3.1, SVG Export Plug-In . SVG Version: 6.00 Build 0)  -->
<svg version="1.1" id="레이어_1" xmlns="http://www.w3.org/2000/svg" xmlns:xlink="http://www.w3.org/1999/xlink" x="0px"
	 y="0px" viewBox="0 0 144 48" style="enable-background:new 0 0 144 48;" xml:space="preserve">
<g>
	<rect x="78.18" y="0.23" width="3.86" height="34.45"/>
	<rect x="112.2" y="11.61" width="3.86" height="23.1"/>
	<path d="M63.57,12.04c-6.27,0-11.32,4.75-11.32,11.38v24.35h3.86V31.73c1.95,1.8,4.66,2.98,7.73,2.98
		c6.79,0,11.08-5.08,11.08-11.32S69.84,12.04,63.57,12.04z M63.57,30.94c-4.14,0-7.49-2.89-7.49-7.55c0-4.14,3.35-7.55,7.49-7.55
		s7.49,3.41,7.49,7.55S68.14,30.94,63.57,30.94z"/>
	<path d="M96.59,12.04c-6.27,0-11.32,5.08-11.32,11.32s4.81,11.32,11.08,11.32c3.07,0,5.81-1.19,7.76-2.98v2.95h3.86V23.39
		C107.94,16.7,102.86,12.04,96.59,12.04z M96.59,30.94c-4.14,0-7.49-3.41-7.49-7.55s3.35-7.55,7.49-7.55s7.49,3.41,7.49,7.55
		C104.11,28.08,100.73,30.94,96.59,30.94z"/>
	<path d="M131.65,12.04c-6.27,0-11.32,4.66-11.32,11.32v11.32h3.83V23.39c0-4.44,3.35-7.58,7.49-7.58c4.14,0,7.49,3.23,7.49,7.58
		v11.32H143V23.39C143,16.79,137.92,12.04,131.65,12.04z"/>
	<circle cx="114.12" cy="3.03" r="2.65"/>
	<path d="M44.46,13.99c-1.8-1.19-3.86-1.86-6.18-1.86c-6.24,0-11.2,5.02-11.2,11.29c0,3.86,1.98,7.52,5.23,9.59
		c3.62,2.28,8.52,2.16,12.26,0.76v-4.05c-1.25,0.91-3.23,1.43-5.11,1.43c-0.94,0-1.67-0.03-2.71-0.3c-1.07-0.27-1.86-0.67-2.65-1.19
		c-1.73-1.13-2.98-2.92-3.1-4.93h17.92c0.12-0.52,0.15-1.1,0.15-1.64C49.08,19.16,47.35,16,44.46,13.99z M31.43,21.05
		c0.49-2.98,3.59-5.23,6.85-5.23c3.5,0,6.18,2.07,6.82,5.23H31.43z"/>
	<path d="M16.95,12.8c-4.26-1.58-9.01-0.7-12.11,2.53V0.23H1V34.2h3.86V22.27c0.12-0.73,0.33-1.43,0.67-2.1
		c1.22-2.59,3.83-4.38,6.91-4.38c4.2,0,7.64,3.17,7.67,7.52c0,1.22-0.3,2.56-0.88,3.65c-0.58,1.13-1.43,2.01-2.43,2.65
		c-1.22,0.82-2.71,1.28-4.32,1.28c-1.46,0-2.83-0.4-3.99-1.13c0,0.55,0,4.11,0,4.11c2.16,0.73,4.23,0.85,6.36,0.52
		c4.93-0.82,8.76-4.84,9.19-9.95C24.52,19.04,21.36,14.44,16.95,12.8z"/>
</g>
</svg>
