<svg xmlns="http://www.w3.org/2000/svg" width="344.158" height="53.594" viewBox="0 0 344.158 53.594">
  <g id="그룹_19096" data-name="그룹 19096" transform="translate(-705.144 -7247.751)">
    <g id="그룹_19084" data-name="그룹 19084" transform="translate(705.144 7247.751)">
      <g id="그룹_19030" data-name="그룹 19030" transform="translate(0 0)">
        <rect id="사각형_6337" data-name="사각형 6337" width="343.364" height="53.594" transform="translate(0.397)" fill="#fff" opacity="0"/>
        <g id="그룹_18998" data-name="그룹 18998" transform="translate(0 0.748)">
          <path id="패스_4445" data-name="패스 4445" d="M39.629,50.776c2.777-3.248,2.787-7.188,2.272-11.161a9.966,9.966,0,0,0-1.931-4.554c-3.084-4.236-7.452-5.992-12.5-6.069-7.265-.121-14.541-.033-21.806-.022-.428,0-.856.077-1.284.11V79.639h6.047v-6.76c0-2.316-.022-4.642.011-6.958a65.055,65.055,0,0,1,.088-6.563,1.917,1.917,0,0,1,.406-.132c7.463-.022,14.914-.066,22.377-.033a6.565,6.565,0,0,1,1.964.68v19.71h6.343V70.508c0-3.479.022-6.947-.011-10.426a5.3,5.3,0,0,0-5.268-5.674c-.318-.033-.626-.121-.867-.165a31.933,31.933,0,0,0,4.159-3.468M30.41,52.829a9.879,9.879,0,0,1-3.72.834c-5.147.1-10.294.044-15.441.033a5.12,5.12,0,0,1-.757-.143V34.831a10.249,10.249,0,0,1,1.317-.187c4.884-.011,9.778-.044,14.662.011,3.885.033,6.914,1.7,8.384,5.356,1.833,4.554.779,10.492-4.445,12.818" transform="translate(-4.379 -27.872)" fill="#fff"/>
          <path id="패스_4446" data-name="패스 4446" d="M51.816,56.379a15.283,15.283,0,0,0-1.152-5.432,12.806,12.806,0,0,0-6.87-7.452A18.424,18.424,0,0,0,31.92,42.353a12.873,12.873,0,0,0-4.225,1.756,40.939,40.939,0,0,0-4.247,3.665V28.833H17.192V80.555h6.332v-5.6c.8.966,1.328,1.668,1.92,2.3C29.922,82,37.868,82.948,44.2,79.743c4.785-2.425,7.1-6.617,7.5-11.786.3-3.841.088-7.715.121-11.578m-6.321,9.6c-.406,7.7-6.168,10.865-12.423,10.151-4.006-.461-7.166-2.425-8.725-6.332a13.5,13.5,0,0,1-.812-3.731l-.044-.527c-.011-.351-.022-.7-.022-1.053,0-.889.033-1.778.033-2.656,0-1.482-.011-2.963.011-4.434a10.407,10.407,0,0,1,9.943-10.107,11.85,11.85,0,0,1,7.572,1.679c3.04,1.986,4.3,5.026,4.466,8.527a84.1,84.1,0,0,1,0,8.483" transform="translate(123.423 -28.833)" fill="#fff"/>
          <path id="패스_4447" data-name="패스 4447" d="M44.04,44.035a18.366,18.366,0,0,0-.362-3.633,11.606,11.606,0,0,0-7.528-9.032,22.506,22.506,0,0,0-13.114-.713c-6.651,1.449-9.8,6.705-9.471,12.577h6.069c.384-3.951,2.3-6.508,5.9-7.485a12.265,12.265,0,0,1,6.859.176,7.184,7.184,0,0,1,5,4.928A13.224,13.224,0,0,1,37.73,46.8H35.623c-3.095,0-6.179-.1-9.262.033a31.145,31.145,0,0,0-6.475.834c-3.775.977-6.629,3.216-7.561,7.177a20.267,20.267,0,0,0-.241,5.169,10.013,10.013,0,0,0,6.694,8.824,18.087,18.087,0,0,0,9.5.571,13.2,13.2,0,0,0,8.011-4.62c.5-.626.966-1.284,1.745-2.338v6.288h6.025V67.586c0-7.847.011-15.693-.022-23.551M34.449,61.528a11.043,11.043,0,0,1-5.334,2.491,11.806,11.806,0,0,1-7.177-.428,5.626,5.626,0,0,1-3.6-4.84c-.263-2.25.3-4.335,2.316-5.531a9.626,9.626,0,0,1,4.335-1.372c4.093-.176,8.209-.044,12.313-.022.121,0,.23.1.549.252.187,3.666-.636,6.9-3.4,9.449" transform="translate(71.97 -17.039)" fill="#fff"/>
          <path id="패스_4448" data-name="패스 4448" d="M52.647,41.361c-.626-4.785-3.04-8.209-7.605-10-4.346-1.7-8.834-1.6-13.29-.724a11.377,11.377,0,0,0-6.42,3.655,12.342,12.342,0,0,0-3,8.812h6.124a4.084,4.084,0,0,0,.187-.615A7.328,7.328,0,0,1,34.484,35.7a12.107,12.107,0,0,1,7.924.637,6.813,6.813,0,0,1,3.227,2.93,11.726,11.726,0,0,1,.955,7.353,10.008,10.008,0,0,1-1.174.143c-3.413.011-6.815-.1-10.217.044a32.306,32.306,0,0,0-6.662.889,9.847,9.847,0,0,0-6.563,4.949c-1.317,2.4-1.1,4.971-1.01,7.528A10.028,10.028,0,0,0,27.625,68.8a16.974,16.974,0,0,0,9.109.6c3.951-.823,7.386-2.546,9.526-6.2.033-.066.231-.055.571-.11v5.575H52.7c.033-.318.066-.5.066-.691q0-11.951-.022-23.913a24.576,24.576,0,0,0-.1-2.7M40.432,63.233a12.921,12.921,0,0,1-9.01.538,5.844,5.844,0,0,1-4.258-5.926,5.423,5.423,0,0,1,4.159-5.5,19.177,19.177,0,0,1,3.194-.582c3.589-.077,7.177-.033,10.777-.022.384,0,.746.055,1.218.1a10.154,10.154,0,0,1-6.08,11.391" transform="translate(160.345 -16.998)" fill="#fff"/>
          <path id="패스_4449" data-name="패스 4449" d="M56.939,32.489c-5.169-2.941-10.656-3.04-16.209-1.416a14.774,14.774,0,0,0-4.423,2.25,14.4,14.4,0,0,0-5.751,10.085c-.395,2.853-.285,5.762-.417,8.648a19.123,19.123,0,0,0,1.339,7.737A13.952,13.952,0,0,0,41.3,68.77a23.128,23.128,0,0,0,12.171-.033,13.591,13.591,0,0,0,9.734-8.79,15.008,15.008,0,0,0,.516-2.447H57.762a9.045,9.045,0,0,1-3.808,5.059,13.652,13.652,0,0,1-8.714,1.569c-6.705-.724-9.383-7.078-8.439-12.4H64.336a31.57,31.57,0,0,0-1.053-11.062,13.758,13.758,0,0,0-6.343-8.176M36.79,46.635c-.713-5.619,2.667-10.261,8.055-11.084a12.619,12.619,0,0,1,7.375.768,8.475,8.475,0,0,1,5.015,5.74c.362,1.416.571,2.864.9,4.576Z" transform="translate(252.374 -16.982)" fill="#fff"/>
          <path id="패스_4450" data-name="패스 4450" d="M33.133,31.393A21.369,21.369,0,0,0,20.8,30.548,14.328,14.328,0,0,0,9.352,41.314,35.174,35.174,0,0,0,8.66,54.352a18.84,18.84,0,0,0,1.789,6.837,14.065,14.065,0,0,0,9.021,7.528,22.939,22.939,0,0,0,12.357.022,13.67,13.67,0,0,0,7.978-5.345A10.5,10.5,0,0,0,41.957,57.5H36.316c-2.831,7.386-10.788,7.693-15.562,5.893-4.017-1.514-6.475-6.464-5.531-11.677h27.37c.252-4.3.241-8.4-1.383-12.291a14.193,14.193,0,0,0-8.077-8.033M15.026,46.648c-.154-3.655.626-6.969,3.687-9.175,3.951-2.842,8.363-2.9,12.6-.768,3.874,1.943,4.971,5.608,4.96,9.943Z" transform="translate(35.457 -16.984)" fill="#fff"/>
          <path id="패스_4451" data-name="패스 4451" d="M15.778,80.666c2.1-.132,4.072.1,6.08-.176V28.834h-6.08Z" transform="translate(109.319 -28.823)" fill="#fff"/>
          <path id="패스_4452" data-name="패스 4452" d="M40.412,30.094a6.2,6.2,0,0,0-6.486,6.519c.088,9.965.022,19.919.033,29.883,0,.483.1.988.143,1.481h6.255V51.725c0-2.689-.011-5.4,0-8.1.022-2.645-.066-5.334.066-8.121h13.4V30.138H52.177c-3.929,0-7.847.1-11.765-.044" transform="translate(290.335 -16.299)" fill="#fff"/>
          <path id="패스_4453" data-name="패스 4453" d="M30.31,30.1a5.384,5.384,0,0,0-1.5.241,5.957,5.957,0,0,0-4.214,5.981c.055,10.108.011,20.2.022,30.311a10.045,10.045,0,0,0,.176,1.328H30.9c0-5.564-.011-10.887,0-16.22.011-5.377-.044-10.755.033-16.275H44.5V30.234a3.769,3.769,0,0,0-.68-.132q-6.749-.016-13.51,0" transform="translate(197.234 -16.252)" fill="#fff"/>
          <path id="패스_4454" data-name="패스 4454" d="M33.1,30.094a6.3,6.3,0,0,0-6.365,6.442c.154,9.833.044,19.666.066,29.5V68h6.288V35.493H46.636V30.236c-.582-.044-1.075-.1-1.58-.1-3.984,0-7.967.1-11.951-.044" transform="translate(218.648 -16.299)" fill="#fff"/>
          <rect id="사각형_6252" data-name="사각형 6252" width="5.992" height="37.708" transform="translate(269.093 14.003)" fill="#fff"/>
          <rect id="사각형_6253" data-name="사각형 6253" width="6.036" height="6.047" transform="translate(269.06 0.032)" fill="#fff"/>
        </g>
      </g>
    </g>
  </g>
</svg>
